<svg width="1424" height="750" viewBox="0 0 1424 750" fill="none" xmlns="http://www.w3.org/2000/svg">
<g clip-path="url(#clip0_59_406)">
<g style="mix-blend-mode:overlay">
<g style="mix-blend-mode:overlay">
<path d="M248.499 -206.713C326.115 -198.693 375.316 -110.984 376.568 -29.7023C378.106 64.3773 329.987 144.464 278.737 214.313C222.988 290.305 168.833 368.913 153.857 469.136C143.208 540.577 160.064 621.29 210.802 665.997C246.848 697.623 295.821 707.463 340.978 698.988C420.701 684.028 483.34 619.356 536.811 556.048C581.855 502.809 625.133 446.213 680.313 406.852C735.492 367.491 806.389 347.299 867.263 374.317C941.291 407.079 981.608 498.486 1051.02 542.113C1089.75 566.457 1135.25 574.307 1179.66 574.591C1210.75 574.591 1242.59 571.292 1270.77 556.56C1331.76 524.65 1362.57 448.033 1380.22 375.397C1388.02 343.089 1394.46 309.815 1409.49 280.863C1424.53 251.911 1450.15 227.452 1480.05 225.973" stroke="#E5D8C2" stroke-miterlimit="10"/>
</g>
<g style="mix-blend-mode:overlay">
<path d="M277.143 -211.662C326.116 -205.12 363.13 -166.158 382.89 -117.525C393.389 -91.7646 399.008 -64.2808 399.461 -36.4712C399.704 -11.5402 396.699 13.3165 390.521 37.4729C375.202 98.562 343.199 154.646 311.88 203.563C287.28 241.729 262.11 278.985 243.204 319.655C225.381 356.747 213.835 396.533 209.037 437.396C202.033 501.898 219.629 573.908 267.52 614.066C281.981 626.025 298.746 634.891 316.777 640.117C340.224 646.776 364.89 647.963 388.869 643.586C462.898 630.276 521.722 572.6 572.574 515.834C615.225 468.168 656.226 417.147 708.045 381.654C761.004 345.421 828.142 326.423 886.34 349.517C951.827 375.454 991.802 446.611 1050.17 489.157C1054.9 492.57 1059.68 495.812 1064.63 498.827C1092.5 515.165 1123.59 525.257 1155.75 528.404C1166.22 529.599 1176.7 530.225 1187.12 530.452C1216.68 530.964 1246.97 528.006 1273.96 514.753C1332.33 486.313 1363.88 416.578 1383.41 349.801C1392.07 320.167 1399.47 289.451 1414.33 262.49C1429.2 235.529 1453.51 212.436 1481.41 209.649" stroke="#E5D8C2" stroke-miterlimit="10"/>
</g>
<g style="mix-blend-mode:overlay">
<path d="M305.843 -216.61C352.937 -208.761 388.243 -169.798 406.921 -122.417C416.746 -97.1754 421.954 -70.3767 422.296 -43.2967C422.546 -18.9214 419.714 5.38793 413.868 29.0547C399.518 88.5512 371.159 144.976 344.964 192.812C325.262 228.874 303.907 262.718 289.045 299.747C275.052 333.485 266.665 369.278 264.217 405.714C260.8 463.22 279.193 526.926 324.066 562.134C337.595 572.653 353.079 580.387 369.622 584.886C391.33 590.81 414.079 591.878 436.247 588.015C504.581 576.639 559.818 525.447 607.879 475.449C648.196 433.301 686.919 387.854 735.322 356.342C786.003 323.295 849.212 305.15 904.904 324.603C967.543 346.104 1007.69 407.876 1063.95 446.554C1068.45 449.683 1073.06 452.64 1077.79 455.371C1104.42 470.55 1133.84 480.222 1164.29 483.811C1174.15 485.098 1184.07 485.877 1194.01 486.143C1222.09 487.11 1250.96 484.607 1276.58 472.89C1332.39 447.464 1364.68 385.01 1386.15 324.091C1395.6 297.073 1403.91 268.975 1418.66 244.004C1433.41 219.034 1456.36 197.306 1482.27 193.21" stroke="#E5D8C2" stroke-miterlimit="10"/>
</g>
<g style="mix-blend-mode:overlay">
<path d="M334.486 -221.616C380.042 -212.344 413.412 -173.666 430.894 -127.252C440.119 -102.55 444.956 -76.4291 445.187 -50.0656C445.311 -26.3461 442.655 -2.69365 437.272 20.4088C423.89 78.5401 399.005 135.022 378.106 182.119C363.129 215.792 345.647 246.507 334.885 279.782C324.735 310.157 319.487 341.952 319.339 373.975C319.339 424.541 338.757 479.715 380.612 510.487C393.375 519.579 407.724 526.214 422.922 530.054C442.921 535.163 463.762 536.093 484.137 532.784C546.777 522.716 598.369 478.975 643.583 435.405C681.565 398.832 718.01 359.015 763.167 331.372C811.684 301.51 871.363 284.673 924.094 299.974C983.772 317.038 1024.2 369.425 1078.3 404.292C1082.63 407.079 1087.01 409.98 1091.57 412.255C1116.97 426.243 1144.73 435.459 1173.46 439.444C1182.79 440.809 1192.19 441.662 1201.59 442.117C1228.19 444.313 1254.95 440.583 1279.94 431.196C1333.19 409.013 1366.21 353.669 1389.56 298.666C1399.87 274.264 1409.04 248.725 1423.73 225.746C1438.42 202.766 1459.89 182.403 1483.92 177.056" stroke="#E5D8C2" stroke-miterlimit="10"/>
</g>
<g style="mix-blend-mode:overlay">
<path d="M363.13 -226.564C406.522 -215.985 438.582 -177.477 454.868 -132.143C463.427 -107.967 467.892 -82.5342 468.079 -56.8911C468.144 -33.8011 465.642 -10.7753 460.62 11.7631C448.263 68.6431 426.794 124.727 411.248 171.368C400.884 202.425 387.445 230.296 380.726 259.874C374.392 286.859 372.298 314.665 374.519 342.293C378.334 385.863 398.322 432.561 437.158 458.271C449.047 466.081 462.209 471.759 476.052 475.051C494.338 479.348 513.275 480.139 531.858 477.383C589.144 468.965 636.75 431.879 679.345 395.191C714.992 364.135 749.216 330.007 790.672 306.174C837.025 279.554 892.888 263.798 942.943 275.231C999.888 287.916 1040.32 330.86 1092.25 361.803C1096.41 364.305 1100.62 366.694 1104.95 368.97C1129.11 381.909 1155.24 390.787 1182.28 395.248C1191.05 396.67 1199.94 397.637 1208.76 398.206C1233.77 400.576 1259 397.629 1282.79 389.56C1333.47 370.619 1367.24 322.385 1392.47 273.241C1403.86 251.456 1413.71 228.533 1428.23 207.544C1442.75 186.555 1462.91 167.728 1485.17 160.903" stroke="#E5D8C2" stroke-miterlimit="10"/>
</g>
<g style="mix-blend-mode:overlay">
<path d="M391.773 -231.57C433.343 -219.625 463.752 -181.345 478.899 -136.978C486.814 -113.341 490.871 -88.5849 490.915 -63.66C490.936 -41.2416 488.627 -18.8816 484.024 3.06026C472.635 58.5183 454.356 114.033 444.163 160.618C438.127 189.058 429.015 213.971 426.339 240.25C423.816 263.803 424.872 287.601 429.471 310.838C436.874 347.469 457.943 385.635 493.477 406.624C504.509 413.013 516.482 417.62 528.954 420.275C545.496 423.806 562.523 424.48 579.293 422.266C630.942 415.497 674.847 385.635 714.708 355.261C747.964 329.779 780.081 301.339 817.949 281.317C862.138 257.94 914.243 243.208 961.564 250.716C1015.32 259.077 1056.26 292.58 1106.09 319.654C1110.02 321.816 1114.06 323.977 1118.16 326.025C1141.12 337.662 1165.6 346.011 1190.88 350.825C1199.1 352.343 1207.38 353.444 1215.71 354.124C1239.2 356.736 1262.98 354.608 1285.64 347.867C1333.76 332.225 1368.26 290.987 1395.37 247.815C1407.33 228.646 1418.15 207.999 1432.78 189.229C1447.42 170.458 1465.93 152.598 1486.03 144.748" stroke="#E5D8C2" stroke-miterlimit="10"/>
</g>
<g style="mix-blend-mode:overlay">
<path d="M420.416 -236.518C460.277 -223.265 488.75 -185.326 502.872 -141.87C510.223 -118.784 513.987 -94.71 514.033 -70.4853C513.971 -48.6962 511.816 -26.9632 507.599 -5.58517C497.178 48.5077 481.632 103.056 477.76 149.868C475.653 175.066 471.154 197.761 472.691 220.001C473.901 240.105 478.064 259.922 485.049 278.815C496.51 311.367 519.887 338.376 550.478 354.409C560.605 359.395 571.375 362.955 582.481 364.988C597.297 367.733 612.438 368.27 627.411 366.581C673.479 361.462 713.625 338.482 750.753 314.763C781.675 294.798 811.627 272.16 845.965 255.892C888.048 235.871 936.337 221.764 980.925 225.689C1031.72 229.614 1072.89 253.674 1120.55 276.881L1131.94 282.569C1153.73 293.057 1176.66 300.978 1200.28 306.174C1207.96 307.767 1215.71 308.961 1223.45 309.815C1245.41 312.616 1267.69 311.304 1289.17 305.947C1334.72 293.49 1369.92 259.419 1398.96 222.049C1411.71 205.497 1423.67 187.921 1437.96 170.857C1451.52 153.476 1468.33 138.891 1487.45 127.912" stroke="#E5D8C2" stroke-miterlimit="10"/>
</g>
<g style="mix-blend-mode:overlay">
<path d="M449.06 -241.524C486.985 -226.905 514.091 -189.08 526.903 -146.705C533.563 -124.157 536.901 -100.762 536.812 -77.254C536.811 -56.1182 534.906 -35.0253 531.117 -14.231C521.721 38.4968 507.941 92.0778 511.016 139.345C512.496 161.415 513.123 181.664 518.703 200.264C523.519 216.896 530.691 232.755 540.001 247.36C555.851 272.396 579.236 291.771 606.797 302.705C615.993 306.214 625.538 308.731 635.269 310.213C648.354 312.118 661.614 312.519 674.789 311.407C715.163 307.937 751.665 291.897 786.06 274.72C814.532 260.386 842.435 243.606 873.128 230.922C912.99 214.427 957.578 201.401 999.432 201.117C1047.32 200.662 1088.72 215.337 1134.22 234.676L1145.15 239.397C1165.64 248.807 1186.9 256.42 1208.7 262.149C1215.88 263.799 1223.05 265.107 1230.29 266.074C1250.71 269.068 1271.49 268.549 1291.73 264.538C1334.67 255.323 1370.71 228.362 1401.63 196.851C1415.19 182.972 1428.06 167.785 1442.24 152.712C1456.06 137.511 1471.59 123.959 1488.53 112.327" stroke="#E5D8C2" stroke-miterlimit="10"/>
</g>
<g style="mix-blend-mode:overlay">
<path d="M477.703 -246.472C513.749 -230.546 539.261 -192.948 550.877 -151.596C556.883 -129.599 559.815 -106.879 559.59 -84.0797C559.3 -63.5612 557.396 -43.0972 553.895 -22.8768C545.468 28.3152 532.427 81.6118 543.531 128.424C547.394 146.673 554.285 164.149 563.918 180.128C572.482 193.318 582.916 205.197 594.896 215.394C621.21 237.868 653.779 251.762 688.228 255.21C699.578 256.378 711.001 256.664 722.395 256.063C756.276 253.307 789.626 245.978 821.536 234.278C847.731 225.461 873.47 214.768 900.576 205.838C938.615 192.926 979.046 180.583 1018.22 176.431C1062.19 171.527 1106.69 176.961 1148.17 192.3C1151.59 193.552 1155.01 194.803 1158.48 196.168C1177.73 204.31 1197.4 211.411 1217.42 217.441C1224.06 219.224 1230.72 220.646 1237.41 221.707C1256.33 224.927 1275.63 225.196 1294.63 222.504C1335.01 216.816 1371.74 196.68 1404.54 171.312C1418.95 159.936 1432.73 147.422 1446.79 134.34C1460.86 121.257 1475.26 107.777 1489.67 96.0593" stroke="#E5D8C2" stroke-miterlimit="10"/>
</g>
<g style="mix-blend-mode:overlay">
<path d="M506.347 -251.421C540.514 -234.357 564.43 -196.759 574.681 -156.431C584.931 -116.103 583.45 -72.9314 577.3 -31.2952C569.897 18.7023 556.572 72.5108 576.731 117.901C584.317 134.448 595.642 149.011 609.816 160.447C647.001 190.992 695.233 198.443 741.415 200.263C804.264 202.534 867.12 195.966 928.138 180.754C1005.7 161.471 1085.25 128.196 1162.24 149.925C1183.99 156.068 1204.66 166.477 1226.36 173.018C1319.63 201.458 1420.71 153.906 1490.92 79.5639" stroke="#E5D8C2" stroke-miterlimit="10"/>
</g>
<g style="mix-blend-mode:overlay">
<path d="M541.254 -290.44C575.421 -273.376 599.338 -235.779 609.588 -195.451C619.838 -155.123 618.357 -111.951 612.207 -70.3147C604.748 -20.3172 591.422 33.4913 611.581 78.8815C619.299 95.3788 630.74 109.864 645.008 121.2C682.193 151.745 730.425 159.196 776.55 161.016C839.418 163.284 902.292 156.716 963.33 141.506C1040.72 122.224 1120.27 88.8356 1197.37 110.848C1219.18 116.991 1239.85 127.4 1261.49 133.941C1354.83 162.381 1455.85 114.83 1526.06 40.4875" stroke="#E5D8C2" stroke-miterlimit="10"/>
</g>
<g style="mix-blend-mode:overlay">
<path d="M637.661 -290.44C666.703 -272.808 684.071 -238.054 690.164 -201.025C696.257 -163.996 692.613 -125.83 684.47 -88.7439C674.675 -42.4435 659.642 6.98519 681.623 47.1425C690.921 63.3044 703.868 77.0747 719.434 87.3567C760.093 115.285 810.546 114.318 858.493 116.138C914.243 118.243 970.276 109.028 1024.83 94.6373C1080.92 79.8485 1138.21 57.5515 1194.7 58.746C1207.9 58.9944 1221.04 60.6921 1233.87 63.8083C1253.41 68.6431 1271.97 77.1183 1291.45 82.4081C1375.1 105.16 1465.36 66.1973 1529.82 5.05128" stroke="#E5D8C2" stroke-miterlimit="10"/>
</g>
<g style="mix-blend-mode:overlay">
<path d="M734.126 -290.44C757.929 -272.353 768.919 -240.386 770.628 -206.656C771.548 -172.928 766.991 -139.274 757.132 -107.002C744.832 -64.3423 728.659 -19.464 752.064 15.6309C763.074 31.3788 777.622 44.3329 794.545 53.4562C838.734 78.8247 891.351 76.2082 941.178 71.3734C989.922 66.6523 1039.07 61.4194 1087.01 47.8819C1136.33 33.9463 1186.61 14.209 1236.49 13.7539C1248.1 13.6185 1259.68 14.7053 1271.06 16.9961C1288.14 20.5226 1304.83 27.007 1322.31 31.0455C1396.34 48.5076 1475.72 17.7355 1534.43 -30.2143" stroke="#E5D8C2" stroke-miterlimit="10"/>
</g>
<g style="mix-blend-mode:overlay">
<path d="M830.59 -290.44C849.211 -271.954 853.88 -242.889 851.033 -212.23C847.809 -182.387 840.569 -153.114 829.508 -125.204C814.589 -86.1843 798.018 -46.1976 822.162 -15.8806C834.961 -0.529606 851.11 11.6896 869.37 19.8401C917.089 42.5921 971.87 35.4821 1023.52 26.7795C1065.26 19.8401 1107.63 14.0952 1148.8 1.35407C1191.34 -11.7283 1234.61 -28.9061 1277.84 -30.84C1287.86 -31.2856 1297.91 -30.7905 1307.85 -29.3611C1322.82 -27.1428 1337.29 -22.6493 1352.26 -19.8053C1416.72 -7.80362 1485.29 -30.3281 1538.19 -65.3093" stroke="#E5D8C2" stroke-miterlimit="10"/>
</g>
<g style="mix-blend-mode:overlay">
<path d="M927.055 -290.44C940.437 -271.499 939.014 -245.335 931.497 -217.805C924.059 -192.115 914.162 -167.2 901.942 -143.406C884.062 -108.083 867.775 -73.2156 892.319 -47.3921C906.993 -32.7175 924.697 -21.4197 944.196 -14.2879C995.446 5.8476 1052.39 -5.01649 1105.92 -18.2695C1140.66 -26.8015 1176.13 -33.7978 1210.81 -45.6857C1246.52 -57.858 1282.9 -72.5331 1319.46 -76.0027C1327.9 -76.8268 1336.4 -76.941 1344.86 -76.344C1357.62 -75.4908 1369.97 -72.8743 1382.73 -71.3386C1437.57 -64.7405 1495.25 -78.9605 1542.17 -100.461" stroke="#E5D8C2" stroke-miterlimit="10"/>
</g>
<g style="mix-blend-mode:overlay">
<path d="M316.605 784.421C426.167 755.242 476.051 706.155 534.078 629.992C591.023 555.764 629.347 463.618 713.455 421.982C755.309 401.278 813.905 388.992 857.696 410.606C935.597 448.659 969.934 547.971 1050.28 584.659C1125.51 619.071 1209.73 609.117 1287.8 593.475C1345.88 581.815 1403.23 565.604 1461.54 555.309" stroke="#E5D8C2" stroke-miterlimit="10"/>
</g>
<g style="mix-blend-mode:overlay">
<path d="M1442.86 592.735C1386.43 603.088 1330.57 616.113 1274.31 624.418C1200.79 635.339 1122.38 639.889 1050.91 610.539C975.459 579.198 938.672 497.177 865.726 471.638C823.074 456.678 768.464 473.515 727.748 495.471C652.126 536.197 613.574 617.251 560.444 684.54C507.315 751.829 460.335 796.082 363.984 823.953" stroke="#E5D8C2" stroke-miterlimit="10"/>
</g>
<g style="mix-blend-mode:overlay">
<path d="M1424.18 630.39C1370.2 641.554 1315.7 650.002 1260.87 655.702C1191.73 661.902 1119.13 661.39 1051.54 636.647C980.982 610.937 941.12 546.492 873.811 532.898C831.957 524.48 781.617 545.582 742.098 568.903C674.789 608.719 636.351 678.795 586.866 739.031C538.633 797.731 494.444 836.979 411.305 863.485" stroke="#E5D8C2" stroke-miterlimit="10"/>
</g>
<g style="mix-blend-mode:overlay">
<path d="M1405.45 668.273C1353.4 679.119 1300.51 685.438 1247.37 687.157C1181.42 689.551 1115.51 681.252 1052.22 662.585C986.677 642.506 943.569 596.433 881.841 594.329C840.613 592.85 794.772 617.706 756.562 642.506C697.511 680.616 659.358 740.567 613.46 793.693C570.182 843.747 528.783 877.989 458.854 903.244" stroke="#E5D8C2" stroke-miterlimit="10"/>
</g>
<g style="mix-blend-mode:overlay">
<path d="M1386.77 705.756C1336.54 716.332 1285.16 720.517 1233.87 718.213C1173.68 715.483 1112.81 703.481 1052.85 688.863C991.915 674.017 945.676 647.341 889.927 655.475C849.211 661.163 807.812 689.318 770.741 715.767C719.491 752.057 682.078 801.997 639.768 848.07C603.028 889.361 557.31 921.699 506.118 942.605" stroke="#E5D8C2" stroke-miterlimit="10"/>
</g>
<g style="mix-blend-mode:overlay">
<path d="M1368.21 743.411C1319.57 753.878 1269.48 755.918 1220.15 749.44C1164.46 742.501 1109.45 724.584 1053.25 714.971C997.041 705.358 947.84 699.044 897.729 716.734C857.867 730.84 820.455 760.873 784.807 789.199C741.814 823.327 704.8 863.712 665.849 902.561C632.701 934.848 594.671 961.721 553.155 982.193" stroke="#E5D8C2" stroke-miterlimit="10"/>
</g>
<g style="mix-blend-mode:overlay">
<path d="M1349.42 781.122C1302.51 791.441 1253.9 791.285 1207.05 780.667C1155.8 769.689 1106.72 745.515 1054.33 740.851C1003.08 736.528 951.314 751.09 906.271 777.766C867.605 800.518 833.609 831.802 799.67 862.404C764.307 894.257 728.432 925.37 692.727 956.825C664.938 981.397 631.284 1000.17 601.046 1021.44" stroke="#E5D8C2" stroke-miterlimit="10"/>
</g>
<g style="mix-blend-mode:overlay">
<path d="M205.905 -185.781C283.635 -181.345 348.267 -108.766 346.388 -25.5502C343.199 145.317 197.42 242.184 127.89 378.184C65.2508 500.249 85.4093 665.371 207.613 729.873C237.509 745.629 280.958 757.062 292.404 796.707C304.989 839.993 270.993 885.042 246.848 914.619" stroke="#E5D8C2" stroke-miterlimit="10"/>
</g>
<g style="mix-blend-mode:overlay">
<path d="M144.233 -176.794C214.788 -172.869 270.48 -110.358 277.484 -37.3813C282.757 15.5616 271.201 68.8182 244.456 114.83C215.073 166.42 174.243 210.673 142.468 261.808C118.803 300.469 99.6947 341.735 85.5232 384.782C52.8368 480.853 59.4424 596.774 120.203 675.894C133.806 693.422 150.014 708.768 168.264 721.398C193.434 739.372 229.309 753.592 238.648 791.531C248.67 832.883 219.628 875.714 198.787 905.291" stroke="#E5D8C2" stroke-miterlimit="10"/>
</g>
<g style="mix-blend-mode:overlay">
<path d="M82.5624 -167.864C145.885 -164.451 194.687 -111.382 208.581 -49.2692C221.119 4.01461 212.203 60.0854 183.753 106.867C152.263 159.992 107.675 203.563 79.7151 260.101C57.6774 304.638 49.9329 348.72 42.7579 391.608C27.5536 482.161 37.5759 586.82 88.9402 666.281C100.281 683.646 113.664 699.591 128.802 713.776C149.473 733.343 178.002 750.748 184.949 786.64C192.523 826.057 168.378 866.556 150.441 896.532" stroke="#E5D8C2" stroke-miterlimit="10"/>
</g>
<g style="mix-blend-mode:overlay">
<path d="M20.8336 -158.82C77.0382 -155.919 120.772 -112.179 139.735 -61.0436C149.842 -34.9923 153.64 -6.92326 150.82 20.8735C147.999 48.6702 138.64 75.4072 123.505 98.9031C89.9077 153.565 41.3907 196.168 17.4169 258.736C-1.37494 307.141 0.333403 353.782 0.333403 398.775C1.13063 482.331 16.278 576.866 58.4741 656.896C67.5679 674.101 78.022 690.554 89.7369 706.097C105.909 727.769 126.979 748.018 131.648 781.975C136.716 819.459 117.469 857.739 102.55 887.943" stroke="#E5D8C2" stroke-miterlimit="10"/>
</g>
<g style="mix-blend-mode:overlay">
<path d="M-40.8372 -149.833C8.13542 -147.444 48.4524 -113.657 70.8317 -72.8743C100.671 -18.5539 96.3431 38.7812 63.0873 90.9401C27.3828 147.138 -24.8926 189.115 -45.1081 256.802C-60.654 309.018 -50.8026 358.276 -41.9761 405.316C-26.878 487.955 -3.66527 568.907 27.3258 646.999C34.5009 664.803 42.3593 681.696 50.1038 698.191C61.4928 722.024 75.2734 745.003 77.6651 777.027C80.2277 812.577 65.9345 848.582 54.0899 879.013" stroke="#E5D8C2" stroke-miterlimit="10"/>
</g>
<g style="mix-blend-mode:overlay">
<path d="M-102.509 -140.846C-82.1039 -139.449 -62.2326 -133.719 -44.2226 -124.037C-26.2125 -114.356 -10.4784 -100.947 1.92838 -84.7054C43.0995 -32.6033 38.1453 29.0547 2.61173 82.9769C-35.1997 140.71 -91.5182 181.834 -107.634 255.096C-120.105 311.18 -102.85 363.68 -84.457 412.142C-57.3513 483.526 -26.7718 556.958 -3.65221 637.387C1.52977 655.247 6.48397 672.766 10.8687 689.944C17.5313 715.995 24.0799 741.648 24.1938 771.851C24.1938 805.41 14.8549 839.197 6.02842 869.798" stroke="#E5D8C2" stroke-miterlimit="10"/>
</g>
</g>
</g>
<defs>
<clipPath id="clip0_59_406">
<rect width="1424" height="750" fill="white"/>
</clipPath>
</defs>
</svg>
