<svg width="24" height="24" viewBox="0 0 24 24" fill="none" xmlns="http://www.w3.org/2000/svg">
<g clip-path="url(#clip0_198_359)">
<path d="M15.5104 10.875C15.8368 10.9688 16.1476 11.096 16.4427 11.2567C16.7378 11.4174 17.0469 11.6618 17.3698 11.99C17.6927 12.3181 17.9688 12.7048 18.1979 13.1501C18.4271 13.5954 18.6181 14.1713 18.7708 14.8778C18.9236 15.5843 19 16.3761 19 17.2533C19 18.2846 18.6528 19.1669 17.9583 19.9001C17.2639 20.6334 16.4271 21 15.4479 21H6.55208C5.57292 21 4.73611 20.6334 4.04167 19.9001C3.34722 19.1669 3 18.2846 3 17.2533C3 16.3761 3.07639 15.5843 3.22917 14.8778C3.38194 14.1713 3.57292 13.5954 3.80208 13.1501C4.03125 12.7048 4.30729 12.3181 4.63021 11.99C4.95312 11.6618 5.26215 11.4174 5.55729 11.2567C5.85243 11.096 6.16319 10.9688 6.48958 10.875C5.94097 10.0379 5.66667 9.12723 5.66667 8.14286C5.66667 7.44643 5.80729 6.78181 6.08854 6.149C6.36979 5.51618 6.75 4.96875 7.22917 4.5067C7.70833 4.04464 8.27604 3.67801 8.93229 3.40681C9.58854 3.1356 10.2778 3 11 3C11.7222 3 12.4115 3.1356 13.0677 3.40681C13.724 3.67801 14.2917 4.04464 14.7708 4.5067C15.25 4.96875 15.6302 5.51618 15.9115 6.149C16.1927 6.78181 16.3333 7.44643 16.3333 8.14286C16.3333 9.12723 16.059 10.0379 15.5104 10.875ZM11 4.28571C9.89583 4.28571 8.95312 4.66239 8.17188 5.41574C7.39062 6.16909 7 7.07812 7 8.14286C7 9.20759 7.39062 10.1166 8.17188 10.87C8.95312 11.6233 9.89583 12 11 12C12.1042 12 13.0469 11.6233 13.8281 10.87C14.6094 10.1166 15 9.20759 15 8.14286C15 7.07812 14.6094 6.16909 13.8281 5.41574C13.0469 4.66239 12.1042 4.28571 11 4.28571ZM15.4479 19.7143C16.059 19.7143 16.5816 19.4749 17.0156 18.9961C17.4497 18.5173 17.6667 17.9364 17.6667 17.2533C17.6667 15.6529 17.3941 14.3906 16.849 13.4665C16.3038 12.5424 15.5208 12.0569 14.5 12.01C13.4931 12.8605 12.3264 13.2857 11 13.2857C9.67361 13.2857 8.50694 12.8605 7.5 12.01C6.47917 12.0569 5.69618 12.5424 5.15104 13.4665C4.6059 14.3906 4.33333 15.6529 4.33333 17.2533C4.33333 17.9364 4.55035 18.5173 4.98438 18.9961C5.4184 19.4749 5.94097 19.7143 6.55208 19.7143H15.4479Z" fill="#41492C"/>
</g>
<defs>
<clipPath id="clip0_198_359">
<rect width="24" height="24" fill="white"/>
</clipPath>
</defs>
</svg>
