<svg width="24" height="24" viewBox="0 0 24 24" fill="none" xmlns="http://www.w3.org/2000/svg">
<g clip-path="url(#clip0_1_9)">
<path fill-rule="evenodd" clip-rule="evenodd" d="M2.44728 7.49305C2.58933 7.33817 2.78985 7.25 3 7.25H21C21.2102 7.25 21.4107 7.33817 21.5527 7.49305C21.6948 7.64792 21.7653 7.85529 21.7472 8.06466L20.7804 19.2371C20.6573 20.6587 19.4675 21.75 18.0406 21.75H5.9594C4.53252 21.75 3.34266 20.6587 3.21964 19.2371L2.2528 8.06466C2.23468 7.85529 2.30523 7.64792 2.44728 7.49305ZM3.81771 8.75L4.71406 19.1078C4.76997 19.7539 5.31082 20.25 5.9594 20.25H18.0406C18.6892 20.25 19.23 19.7539 19.2859 19.1078L20.1823 8.75H3.81771Z" fill="#41492C"/>
<path fill-rule="evenodd" clip-rule="evenodd" d="M12 3.75C9.58811 3.75 7.75 5.52276 7.75 7.57143V11C7.75 11.4142 7.41421 11.75 7 11.75C6.58579 11.75 6.25 11.4142 6.25 11V7.57143C6.25 4.57064 8.88904 2.25 12 2.25C15.111 2.25 17.75 4.57064 17.75 7.57143V11C17.75 11.4142 17.4142 11.75 17 11.75C16.5858 11.75 16.25 11.4142 16.25 11V7.57143C16.25 5.52276 14.4119 3.75 12 3.75Z" fill="#41492C"/>
</g>
<defs>
<clipPath id="clip0_1_9">
<rect width="24" height="24" fill="white"/>
</clipPath>
</defs>
</svg>
