<svg width="24" height="25" viewBox="0 0 24 25" fill="none" xmlns="http://www.w3.org/2000/svg">
<path d="M19.4396 13.5001C19.2196 13.5001 18.9896 13.4301 18.7696 13.3801C18.3241 13.2819 17.8863 13.1516 17.4596 12.9901C16.9957 12.8213 16.4858 12.8301 16.0279 13.0147C15.5701 13.1993 15.1967 13.5467 14.9796 13.9901L14.7596 14.4401C13.7856 13.8983 12.8906 13.2253 12.0996 12.4401C11.3144 11.6491 10.6414 10.7541 10.0996 9.78011L10.5196 9.50011C10.963 9.28303 11.3104 8.90964 11.495 8.4518C11.6796 7.99396 11.6884 7.48402 11.5196 7.02011C11.3608 6.59253 11.2305 6.15491 11.1296 5.71011C11.0796 5.49011 11.0396 5.26011 11.0096 5.03011C10.8882 4.32573 10.5192 3.68785 9.96923 3.23135C9.41923 2.77485 8.72431 2.52972 8.00961 2.54011H5.00961C4.57864 2.53607 4.15186 2.62493 3.75832 2.80064C3.36478 2.97636 3.01372 3.23481 2.72904 3.55839C2.44436 3.88198 2.23275 4.26311 2.1086 4.67583C1.98445 5.08855 1.95069 5.52317 2.00961 5.95011C2.54235 10.1395 4.45564 14.032 7.44726 17.0127C10.4389 19.9935 14.3383 21.8926 18.5296 22.4101H18.9096C19.647 22.4112 20.359 22.1406 20.9096 21.6501C21.226 21.3672 21.4787 21.0203 21.6511 20.6324C21.8235 20.2446 21.9116 19.8245 21.9096 19.4001V16.4001C21.8974 15.7055 21.6444 15.0367 21.194 14.5078C20.7435 13.9789 20.1234 13.6227 19.4396 13.5001ZM19.9396 19.5001C19.9394 19.6421 19.909 19.7824 19.8504 19.9117C19.7918 20.0411 19.7063 20.1564 19.5996 20.2501C19.4879 20.3466 19.3572 20.4187 19.216 20.4617C19.0748 20.5048 18.9262 20.5178 18.7796 20.5001C15.0345 20.0199 11.5558 18.3066 8.89233 15.6304C6.22881 12.9542 4.53202 9.46745 4.06961 5.72011C4.0537 5.57363 4.06765 5.42544 4.11061 5.2845C4.15358 5.14356 4.22468 5.0128 4.31961 4.90011C4.41332 4.79344 4.52867 4.70795 4.65799 4.64933C4.78731 4.59071 4.92763 4.56029 5.06961 4.56011H8.06961C8.30216 4.55494 8.52924 4.63099 8.71176 4.77518C8.89428 4.91937 9.02082 5.12268 9.06961 5.35011C9.10961 5.62345 9.15961 5.89345 9.21961 6.16011C9.33513 6.68726 9.48887 7.20529 9.67961 7.71011L8.27961 8.36011C8.15991 8.41503 8.05223 8.49306 7.96277 8.58971C7.87331 8.68636 7.80381 8.79973 7.75828 8.92331C7.71275 9.04689 7.69208 9.17824 7.69746 9.30983C7.70284 9.44142 7.73415 9.57066 7.78961 9.69011C9.22881 12.7729 11.7069 15.2509 14.7896 16.6901C15.0331 16.7901 15.3062 16.7901 15.5496 16.6901C15.6743 16.6455 15.7889 16.5766 15.8868 16.4873C15.9846 16.398 16.0638 16.2902 16.1196 16.1701L16.7396 14.7701C17.2566 14.955 17.7842 15.1086 18.3196 15.2301C18.5863 15.2901 18.8563 15.3401 19.1296 15.3801C19.357 15.4289 19.5604 15.5554 19.7045 15.738C19.8487 15.9205 19.9248 16.1476 19.9196 16.3801L19.9396 19.5001Z" fill="#94A073"/>
</svg>
