<svg width="40" height="40" viewBox="0 0 40 40" fill="none" xmlns="http://www.w3.org/2000/svg">
<path fill-rule="evenodd" clip-rule="evenodd" d="M36 20C36 28.836 28.836 36 20 36C11.164 36 4 28.836 4 20C4 11.164 11.164 4 20 4C28.836 4 36 11.164 36 20ZM20.5733 15.812C19.0173 16.4587 15.9067 17.7987 11.2427 19.8307C10.4853 20.132 10.088 20.4267 10.052 20.7147C9.99067 21.2027 10.6013 21.3947 11.4307 21.6547C11.544 21.6907 11.6613 21.7267 11.7813 21.7667C12.5987 22.032 13.6973 22.3427 14.268 22.3547C14.7867 22.3653 15.3653 22.152 16.004 21.7147C20.3613 18.772 22.6107 17.2853 22.752 17.2533C22.852 17.2307 22.9907 17.2013 23.084 17.2853C23.1773 17.368 23.168 17.5253 23.1587 17.568C23.0973 17.8253 20.7053 20.0507 19.4653 21.2027C19.0787 21.5613 18.8053 21.816 18.7493 21.8747C18.624 22.004 18.496 22.128 18.3733 22.2467C17.6133 22.9773 17.0453 23.5267 18.4053 24.4227C19.0587 24.8533 19.5813 25.2093 20.1027 25.564C20.672 25.952 21.24 26.3387 21.976 26.8213C22.1627 26.944 22.3413 27.0707 22.516 27.1947C23.1787 27.668 23.7747 28.092 24.5107 28.0253C24.9373 27.9853 25.38 27.584 25.604 26.3853C26.1333 23.5507 27.176 17.412 27.4173 14.8813C27.432 14.6712 27.4231 14.4601 27.3907 14.252C27.3713 14.0839 27.2894 13.9292 27.1613 13.8187C26.9707 13.6627 26.6747 13.6293 26.5413 13.632C25.94 13.6427 25.0173 13.964 20.5733 15.812Z" fill="#94A073"/>
</svg>
