<svg width="40" height="40" viewBox="0 0 40 40" fill="none" xmlns="http://www.w3.org/2000/svg">
<path d="M33.5996 11.4C28.7996 4 18.9996 1.8 11.3996 6.4C3.99956 11 1.59956 21 6.39956 28.4L6.79956 29L5.19956 35L11.1996 33.4L11.7996 33.8C14.3996 35.2 17.1996 36 19.9996 36C22.9996 36 25.9996 35.2 28.5996 33.6C35.9996 28.8 38.1996 19 33.5996 11.4ZM29.3996 26.8C28.5996 28 27.5996 28.8 26.1996 29C25.3996 29 24.3996 29.4 20.3996 27.8C16.9996 26.2 14.1996 23.6 12.1996 20.6C10.9996 19.2 10.3996 17.4 10.1996 15.6C10.1996 14 10.7996 12.6 11.7996 11.6C12.1996 11.2 12.5996 11 12.9996 11H13.9996C14.3996 11 14.7996 11 14.9996 11.8C15.3996 12.8 16.3996 15.2 16.3996 15.4C16.5996 15.6 16.5996 16 16.3996 16.2C16.5996 16.6 16.3996 17 16.1996 17.2C15.9996 17.4 15.7996 17.8 15.5996 18C15.1996 18.2 14.9996 18.6 15.1996 19C15.9996 20.2 16.9996 21.4 17.9996 22.4C19.1996 23.4 20.3996 24.2 21.7996 24.8C22.1996 25 22.5996 25 22.7996 24.6C22.9996 24.2 23.9996 23.2 24.3996 22.8C24.7996 22.4 24.9996 22.4 25.3996 22.6L28.5996 24.2C28.9996 24.4 29.3996 24.6 29.5996 24.8C29.7996 25.4 29.7996 26.2 29.3996 26.8Z" fill="#94A073"/>
</svg>
